<svg xmlns="http://www.w3.org/2000/svg" width="724" height="724" viewBox="0 0 724 724"><path d="M 365 396 C 393 389 430 390 466 399 C 481 389 491 377 500 367 C 512 370 519 378 524 386 C 514 403 501 420 494 431 C 505 467 496 510 485 542 C 447 564 395 562 365 548 C 349 558 328 551 314 537 C 309 515 316 493 328 473 C 339 459 347 450 354 442 Z" fill="#73c4b4"/><path d="M 314 520 C 327 533 349 538 368 526" fill="none" stroke="#285f61" stroke-width="3"/><path d="M 498 369 C 505 379 515 385 524 386" fill="none" stroke="#285f61" stroke-width="3"/></svg>